<?xml version="1.0" encoding="UTF-8"?>
<svg xmlns="http://www.w3.org/2000/svg" version="1.1" viewBox="0 0 800 800">
  <defs>
    <style>
      .cls-1, .cls-2 {
        fill: #fff;
      }

      .cls-2 {
        fill-rule: evenodd;
      }
    </style>
  </defs>
  <!-- Generator: Adobe Illustrator 28.7.1, SVG Export Plug-In . SVG Version: 1.2.0 Build 142)  -->
  <g>
    <g id="Layer_1">
      <path class="cls-2" d="M166.7,316.7c0-82.8,67.2-150,150-150s150,67.2,150,150-67.2,150-150,150-150-67.2-150-150Z"/>
      <path class="cls-1" d="M478.9,402.1c-1.5,2.9-.9,6.5,1.7,8.4,19.4,14.4,43.4,22.8,69.3,22.8,64.4,0,116.7-52.2,116.7-116.7s-52.2-116.7-116.7-116.7-50,8.5-69.3,22.8c-2.6,1.9-3.3,5.5-1.7,8.4,13.5,25.5,21.1,54.6,21.1,85.4s-7.6,59.9-21.1,85.4Z"/>
      <path class="cls-2" d="M154.7,523.3c41.1-17.8,95-23.3,162-23.3s121,5.5,162.1,23.4c44.8,19.5,72,52.6,86.2,99.4,6.7,21.9-9.8,43.9-32.5,43.9H100.9c-22.7,0-39.3-22-32.5-44,14.3-46.8,41.5-80,86.3-99.4Z"/>
      <path class="cls-1" d="M493.9,467.9c-13.8.9-14.6,19.4-1.9,24.9h0c34.7,15.1,60.9,37.4,79.7,65.7,15.4,23.3,39.3,41.5,67.2,41.5h59.4c23.6,0,40.8-23.4,32.5-46.3-.5-1.3-1-2.6-1.5-3.9-11.4-28.8-31-50-59.9-63.6-27.2-12.7-61.2-17.9-101.4-19.5h-.7s-.7,0-.7,0c-23.6,0-48.3-.3-72.7,1.2Z"/>
    </g>
  </g>
</svg>